<?xml version="1.0" encoding="UTF-8"?><svg id="Layer_2" xmlns="http://www.w3.org/2000/svg" viewBox="0 0 474.51 135.57"><defs><style>.cls-1{fill:#393;}.cls-2{fill:none;}.cls-3{fill:#fc3;}</style></defs><g id="Layer_1-2"><g><rect class="cls-2" width="474.51" height="135.57"/><g><path class="cls-1" d="M52.2,96.4v-30.99c0-4.95-4.01-8.96-8.96-8.96h0c-4.95,0-8.96,4.01-8.96,8.96v32.93s0,8.96,0,8.96c0,4.95,4.01,8.96,8.96,8.96h41.89c4.95,0,8.96-4.01,8.96-8.96h0c0-4.95-4.01-8.96-8.96-8.96h-30.99c-1.07,0-1.94-.87-1.94-1.94Z"/><path class="cls-1" d="M136.26,42.92L84.07,12.78c-1.61-1.26-3.59-1.92-5.62-1.91-2.02-.02-4.01,.65-5.62,1.91L22.44,41.88c-4.28,2.47-5.75,7.95-3.28,12.24h0c2.47,4.28,7.95,5.75,12.24,3.28l46.08-26.6c.6-.35,1.34-.35,1.94,0l46.08,26.6c4.28,2.47,9.76,1.01,12.24-3.28h0c3.61-3.61,2.94-8.64-1.47-11.19Z"/><path class="cls-3" d="M120.93,80.05c-9.63-23.03-21.23-29.64-21.23-29.64,0,0,9.15,14.23,1.9,33.41-6.93,18.31-.33,32.44,8.66,32.44,13.44,0,16.76-21.64,10.67-36.2Zm-2.59,23.66c-2.56,0-2.93-4.01-1.77-8.32,1.58-5.88,1.08-11.66,.27-14.25-.32-1.02,.96-1.64,1.55-.75,1.4,2.12,3.46,7.01,3.45,16.17,0,5.37-1.44,7.14-3.5,7.14Z"/></g><g><path class="cls-1" d="M146.68,114.91c-.9-.89-1.34-2.17-1.34-3.81v-39.48c0-1.65,.45-2.92,1.34-3.81,.89-.89,2.17-1.34,3.81-1.34h14.2c5.41,0,10.08,.99,13.99,2.97,3.91,1.98,6.9,4.83,8.97,8.55,2.07,3.72,3.11,8.17,3.11,13.35s-1.02,9.64-3.07,13.38c-2.05,3.74-5.03,6.6-8.94,8.58-3.91,1.98-8.59,2.97-14.06,2.97h-14.2c-1.65,0-2.92-.45-3.81-1.34Zm17.23-7.56c10.6,0,15.89-5.34,15.89-16.03s-5.3-15.96-15.89-15.96h-7.56v32h7.56Z"/><path class="cls-1" d="M223.56,107.07c.59,.75,.88,1.72,.88,2.9,0,.8-.24,1.54-.71,2.22-.47,.68-1.13,1.26-1.98,1.73-1.6,.85-3.46,1.54-5.58,2.08s-4.07,.81-5.86,.81c-3.77,0-7.05-.73-9.85-2.19-2.8-1.46-4.96-3.54-6.46-6.25-1.51-2.71-2.26-5.9-2.26-9.57s.73-6.66,2.19-9.39c1.46-2.73,3.48-4.86,6.07-6.39,2.59-1.53,5.53-2.3,8.83-2.3s5.92,.7,8.3,2.08c2.38,1.39,4.23,3.37,5.55,5.93,1.32,2.57,1.98,5.57,1.98,9.01,0,1.04-.25,1.83-.74,2.37-.49,.54-1.19,.81-2.08,.81h-19.78c.33,2.78,1.18,4.79,2.54,6.04,1.37,1.25,3.32,1.87,5.86,1.87,1.37,0,2.59-.16,3.67-.49,1.08-.33,2.28-.78,3.6-1.34,.66-.28,1.29-.53,1.91-.74,.61-.21,1.15-.32,1.62-.32,.94,0,1.71,.38,2.3,1.13Zm-19.32-17.06c-1.23,1.3-1.95,3.17-2.19,5.62h13.63c-.14-2.5-.77-4.38-1.87-5.65-1.11-1.27-2.67-1.91-4.7-1.91s-3.65,.65-4.87,1.94Z"/><path class="cls-1" d="M233.2,116.11c-2.12-.47-3.98-1.22-5.58-2.26-.71-.42-1.25-.99-1.63-1.7-.38-.71-.56-1.51-.56-2.4,0-1.08,.31-1.99,.92-2.72,.61-.73,1.37-1.1,2.26-1.1,.61,0,1.22,.11,1.84,.32,.61,.21,1.25,.46,1.91,.74,1.32,.61,2.61,1.1,3.88,1.45,1.27,.35,2.85,.53,4.73,.53,1.65,0,2.93-.26,3.85-.78,.92-.52,1.38-1.22,1.38-2.12,0-.66-.2-1.19-.6-1.59-.4-.4-1.14-.76-2.22-1.1-1.08-.33-2.8-.73-5.16-1.2-4.19-.8-7.2-2-9.04-3.6-1.84-1.6-2.75-3.84-2.75-6.71,0-2.12,.65-4.03,1.94-5.72,1.29-1.7,3.07-3.03,5.33-3.99,2.26-.96,4.8-1.45,7.63-1.45,2.02,0,4,.26,5.93,.78,1.93,.52,3.65,1.25,5.16,2.19,1.46,.89,2.19,2.21,2.19,3.96,0,1.13-.31,2.07-.92,2.83-.61,.75-1.37,1.13-2.26,1.13-1.08,0-2.38-.42-3.88-1.27-1.18-.61-2.25-1.07-3.21-1.38-.97-.31-2.11-.46-3.43-.46-1.46,0-2.61,.27-3.46,.81-.85,.54-1.27,1.28-1.27,2.22,0,.99,.49,1.74,1.48,2.26,.99,.52,2.9,1.04,5.72,1.55,3.15,.61,5.63,1.35,7.42,2.22,1.79,.87,3.08,1.97,3.88,3.28,.8,1.32,1.2,2.99,1.2,5.01,0,3.34-1.38,6-4.13,7.98-2.75,1.98-6.44,2.97-11.05,2.97-2.87,0-5.37-.24-7.49-.71Z"/><path class="cls-1" d="M265.77,114.63c-2.68-1.46-4.75-3.53-6.18-6.22-1.44-2.68-2.15-5.84-2.15-9.46s.76-6.82,2.3-9.57c1.53-2.76,3.68-4.89,6.46-6.39,2.78-1.51,5.98-2.26,9.61-2.26,1.88,0,3.78,.26,5.69,.78,1.91,.52,3.61,1.25,5.12,2.19,1.46,.89,2.19,2.21,2.19,3.96,0,1.23-.28,2.22-.85,3-.56,.78-1.32,1.17-2.26,1.17-.61,0-1.19-.11-1.73-.32-.54-.21-1.26-.53-2.15-.95-.99-.52-1.87-.92-2.65-1.2-.78-.28-1.66-.42-2.65-.42-2.64,0-4.65,.84-6.04,2.51-1.39,1.67-2.08,4.11-2.08,7.31s.69,5.65,2.08,7.35c1.39,1.7,3.4,2.54,6.04,2.54,.99,0,1.86-.13,2.61-.39,.75-.26,1.67-.67,2.76-1.24,.89-.42,1.6-.74,2.12-.95,.52-.21,1.08-.32,1.7-.32,.89,0,1.64,.4,2.22,1.2,.59,.8,.88,1.81,.88,3.04,0,1.74-.73,3.04-2.19,3.88-1.51,.94-3.25,1.67-5.23,2.19-1.98,.52-4.05,.78-6.22,.78-3.58,0-6.71-.73-9.39-2.19Z"/><path class="cls-1" d="M318.11,84.43c2.45,2.47,3.67,6.25,3.67,11.34v15.96c0,1.55-.45,2.77-1.34,3.64-.9,.87-2.14,1.31-3.74,1.31-1.51,0-2.72-.46-3.64-1.38-.92-.92-1.38-2.11-1.38-3.57v-.49c-.71,1.74-1.88,3.11-3.53,4.1-1.65,.99-3.58,1.48-5.79,1.48-2.35,0-4.49-.47-6.39-1.41-1.91-.94-3.41-2.26-4.52-3.96-1.11-1.7-1.66-3.58-1.66-5.65,0-2.54,.65-4.54,1.94-6,1.29-1.46,3.38-2.52,6.25-3.18,2.87-.66,6.8-.99,11.8-.99h1.84v-1.27c0-1.98-.44-3.41-1.31-4.31-.87-.89-2.32-1.34-4.34-1.34s-4.94,.71-8.76,2.12c-1.08,.52-2,.78-2.75,.78-1.04,0-1.86-.36-2.47-1.1-.61-.73-.92-1.68-.92-2.86,0-.94,.21-1.72,.64-2.33,.42-.61,1.11-1.18,2.05-1.7,1.65-.89,3.66-1.6,6.04-2.12,2.38-.52,4.72-.78,7.03-.78,5.09,0,8.85,1.24,11.3,3.71Zm-8.41,22.96c1.27-1.39,1.91-3.19,1.91-5.4v-1.2h-1.2c-3.81,0-6.49,.31-8.02,.92-1.53,.61-2.3,1.72-2.3,3.32,0,1.32,.43,2.39,1.31,3.21,.87,.82,1.97,1.24,3.28,1.24,2.07,0,3.74-.69,5.01-2.08Z"/><path class="cls-1" d="M369.81,109.97c-.66-.61-1.7-.96-3.11-1.06l-1.98-.14c-1.27-.09-2.24-.51-2.9-1.24-.66-.73-.99-1.8-.99-3.21v-14.76h4.94c1.6,0,2.8-.34,3.6-1.02,.8-.68,1.2-1.66,1.2-2.93,0-2.68-1.6-4.03-4.8-4.03h-4.94v-5.51c0-1.55-.47-2.78-1.41-3.67-.94-.89-2.24-1.34-3.88-1.34s-2.96,.45-3.92,1.34c-.97,.89-1.45,2.12-1.45,3.67v5.51h-4.24c-.76,0-5.31,.12-7.03,1.2-1.72,1.08-3,2.64-3.85,4.66v-1.91c0-1.46-.47-2.6-1.41-3.43-.94-.82-2.12-1.24-3.53-1.24s-2.71,.42-3.74,1.27c-1.04,.85-1.55,2.05-1.55,3.6v25.92c0,1.65,.51,2.9,1.52,3.74,1.01,.85,2.3,1.27,3.85,1.27s2.77-.42,3.78-1.27c1.01-.85,1.52-2.09,1.52-3.74v-13.49c0-2.21,.58-4.03,1.73-5.44,1.15-1.41,2.92-2.94,5.62-3.25,.77-.09,2.07,.07,3.11,.07h4.24v13.99c0,7.96,4.12,12.27,12.36,12.93l1.98,.14c2.02,.14,3.58-.14,4.66-.85,1.08-.71,1.63-1.74,1.63-3.11,0-1.18-.33-2.07-.99-2.68Z"/><path class="cls-3" d="M383.48,113.74c-3.65-2.09-6.46-5.06-8.44-8.9-1.98-3.84-2.97-8.35-2.97-13.53s.99-9.69,2.97-13.53c1.98-3.84,4.79-6.79,8.44-8.86,3.65-2.07,7.95-3.11,12.89-3.11s9.24,1.04,12.89,3.11c3.65,2.07,6.46,5.03,8.44,8.86,1.98,3.84,2.97,8.35,2.97,13.53s-.99,9.69-2.97,13.53c-1.98,3.84-4.79,6.81-8.44,8.9-3.65,2.1-7.95,3.14-12.89,3.14s-9.24-1.05-12.89-3.14Zm22.67-9.78c2.38-2.92,3.57-7.13,3.57-12.64s-1.18-9.71-3.53-12.61c-2.35-2.9-5.63-4.34-9.82-4.34s-7.45,1.45-9.78,4.34-3.5,7.1-3.5,12.61,1.18,9.72,3.53,12.64c2.35,2.92,5.6,4.38,9.75,4.38s7.4-1.46,9.78-4.38Z"/><path class="cls-3" d="M429.14,73.77c-1.08-.96-1.62-2.27-1.62-3.92s.54-2.94,1.62-3.88c1.08-.94,2.57-1.41,4.45-1.41s3.31,.48,4.41,1.45c1.11,.97,1.66,2.25,1.66,3.85s-.54,2.96-1.62,3.92c-1.08,.97-2.57,1.45-4.45,1.45s-3.37-.48-4.45-1.45Zm.6,41.64c-1.01-.85-1.52-2.09-1.52-3.74v-25.78c0-1.65,.52-2.9,1.55-3.74,1.04-.85,2.31-1.27,3.81-1.27s2.77,.42,3.78,1.27c1.01,.85,1.52,2.1,1.52,3.74v25.78c0,1.65-.51,2.9-1.52,3.74-1.01,.85-2.27,1.27-3.78,1.27s-2.84-.42-3.85-1.27Z"/><path class="cls-3" d="M448.6,115.4c-1.01-.85-1.52-2.09-1.52-3.74v-40.54c0-1.65,.51-2.9,1.52-3.74,1.01-.85,2.3-1.27,3.85-1.27s2.77,.42,3.78,1.27c1.01,.85,1.52,2.1,1.52,3.74v40.54c0,1.65-.51,2.9-1.52,3.74-1.01,.85-2.27,1.27-3.78,1.27s-2.84-.42-3.85-1.27Z"/></g></g></g></svg>